<?xml version="1.0" encoding="utf-8"?>
<!-- Svg Vector Icons : http://www.onlinewebfonts.com/icon -->
<!DOCTYPE svg PUBLIC "-//W3C//DTD SVG 1.1//EN" "http://www.w3.org/Graphics/SVG/1.1/DTD/svg11.dtd">
<svg version="1.1" xmlns="http://www.w3.org/2000/svg" xmlns:xlink="http://www.w3.org/1999/xlink" x="0px" y="0px" viewBox="0 0 1000 1000" enable-background="new 0 0 1000 1000" xml:space="preserve">
<metadata> Svg Vector Icons : http://www.onlinewebfonts.com/icon </metadata>
<g><g><g id="_x31__12_"><g><path d="M437.9,530.6H163.1c-16.9,0-30.6,13.7-30.6,30.6s13.7,30.6,30.6,30.6h203L157.9,800.1l43.3,43.3l207.9-207.9l-1,201.4c0,16.9,13.7,30.6,30.6,30.6s30.6-13.7,30.6-30.6V561.3c0-9.1-3.8-16.4-9.7-21.4C454.2,534.2,446.4,530.6,437.9,530.6z M836.9,408.1h-203l208.2-208.2l-43.3-43.3L590.9,364.5l1-201.4c0-16.9-13.7-30.6-30.6-30.6s-30.6,13.7-30.6,30.6v275.6c0,9.1,3.7,16.4,9.7,21.4c5.5,5.7,13.3,9.2,21.8,9.2h274.8c16.9,0,30.6-13.7,30.6-30.6S853.8,408.1,836.9,408.1z M867.5,10h-735C64.8,10,10,64.8,10,132.5v735C10,935.2,64.8,990,132.5,990h735c67.7,0,122.5-54.8,122.5-122.5v-735C990,64.8,935.2,10,867.5,10z M928.8,867.5c0,33.8-27.4,61.3-61.3,61.3h-735c-33.8,0-61.3-27.4-61.3-61.3v-735c0-33.8,27.4-61.3,61.3-61.3h735c33.8,0,61.3,27.4,61.3,61.3V867.5z"/></g></g></g><g></g><g></g><g></g><g></g><g></g><g></g><g></g><g></g><g></g><g></g><g></g><g></g><g></g><g></g><g></g></g>
</svg>