<?xml version="1.0" encoding="UTF-8" standalone="no"?>
<svg
   xmlns:dc="http://purl.org/dc/elements/1.1/"
   xmlns:cc="http://creativecommons.org/ns#"
   xmlns:rdf="http://www.w3.org/1999/02/22-rdf-syntax-ns#"
   xmlns:svg="http://www.w3.org/2000/svg"
   xmlns="http://www.w3.org/2000/svg"
   xmlns:sodipodi="http://sodipodi.sourceforge.net/DTD/sodipodi-0.dtd"
   xmlns:inkscape="http://www.inkscape.org/namespaces/inkscape"
   inkscape:version="1.0 (4035a4fb49, 2020-05-01)"
   height="58"
   width="47"
   sodipodi:docname="green.svg"
   xml:space="preserve"
   viewBox="0 0 360 511.99979"
   y="0px"
   x="0px"
   id="Capa_1"
   version="1.1"><metadata
   id="metadata41"><rdf:RDF><cc:Work
       rdf:about=""><dc:format>image/svg+xml</dc:format><dc:type
         rdf:resource="http://purl.org/dc/dcmitype/StillImage" /><dc:title></dc:title></cc:Work></rdf:RDF></metadata><defs
   id="defs39" /><sodipodi:namedview
   inkscape:current-layer="Capa_1"
   inkscape:window-maximized="1"
   inkscape:window-y="-8"
   inkscape:window-x="-8"
   inkscape:cy="305.95122"
   inkscape:cx="59.804878"
   inkscape:zoom="1.6015625"
   showgrid="false"
   id="namedview37"
   inkscape:window-height="987"
   inkscape:window-width="1680"
   inkscape:pageshadow="2"
   inkscape:pageopacity="0"
   guidetolerance="10"
   gridtolerance="10"
   objecttolerance="10"
   borderopacity="1"
   bordercolor="#666666"
   pagecolor="#ffffff" />


<g
   transform="translate(-76)"
   id="g6">
</g>
<g
   transform="translate(-76)"
   id="g8">
</g>
<g
   transform="translate(-76)"
   id="g10">
</g>
<g
   transform="translate(-76)"
   id="g12">
</g>
<g
   transform="translate(-76)"
   id="g14">
</g>
<g
   transform="translate(-76)"
   id="g16">
</g>
<g
   transform="translate(-76)"
   id="g18">
</g>
<g
   transform="translate(-76)"
   id="g20">
</g>
<g
   transform="translate(-76)"
   id="g22">
</g>
<g
   transform="translate(-76)"
   id="g24">
</g>
<g
   transform="translate(-76)"
   id="g26">
</g>
<g
   transform="translate(-76)"
   id="g28">
</g>
<g
   transform="translate(-76)"
   id="g30">
</g>
<g
   transform="translate(-76)"
   id="g32">
</g>
<g
   transform="translate(-76)"
   id="g34">
</g>
<path
   id="path43"
   d="M 179.6878,391.91826 V 271.21854 l 5.77561,-0.43974 c 22.46337,-1.7103 41.85595,-10.4003 57.50607,-25.76901 17.43707,-17.12352 26.7383,-39.55783 26.73936,-64.49462 10e-4,-23.57465 -8.58312,-44.84653 -24.99953,-61.95009 -7.53492,-7.85031 -14.60005,-13.16065 -23.77626,-17.87085 C 209.02724,94.58289 198.45355,91.561641 186.4,90.826989 l -6.7122,-0.4091 V 45.544591 0.67128987 l 6.0878,0.35742503 c 28.15253,1.6528848 48.9585,6.8028458 71.64879,17.7347421 36.19128,17.436507 64.96989,45.811257 82.93177,81.767983 11.92289,23.86765 17.7626,46.65174 18.90147,73.74554 1.2985,30.89161 -6.70905,65.15963 -21.35797,91.40068 -7.23915,12.9677 -145.34184,239.92123 -147.21131,241.92233 -2.31434,2.4773 -5.441,4.15852 -8.65909,4.65601 l -2.34146,0.36198 z"
   style="fill:#009870;fill-opacity:1;fill-rule:evenodd;stroke-width:0.62439" /><path
   id="path868"
   d="m 174.06829,510.77969 c -1.20195,-0.64082 -2.94122,-1.96304 -3.86505,-2.93827 C 169.27941,506.8662 136.13996,453.10439 96.560003,388.37073 23.068347,268.17394 16.911356,257.64504 11.555515,243.0068 6.9463208,230.40925 3.6081558,216.91935 1.6374598,202.92683 0.52919776,195.05783 0.51165676,165.90138 1.6105998,158.28293 6.3573228,125.37621 17.596803,97.979211 36.959705,72.117073 43.640396,63.193987 60.588304,45.945348 69.170732,39.334481 99.953764,15.622952 136.72683,2.1630218 173.60048,1.1103879 l 6.08829,-0.17380303 -4.8e-4,44.70460013 -4.9e-4,44.704599 -6.71219,0.4091 c -20.93615,1.276036 -40.86426,10.524616 -56.6898,26.309586 -16.711014,16.66816 -25.359468,36.4796 -26.306843,60.26236 -1.923003,48.27494 33.583173,88.58774 82.060053,93.16889 l 7.64878,0.72282 V 391.60927 512 l -1.71707,-0.0276 c -0.94439,-0.0152 -2.70049,-0.5519 -3.90244,-1.19271 z"
   style="fill:#00ad90;fill-opacity:1;fill-rule:evenodd;stroke-width:0.62439" /></svg>
