<?xml version="1.0" encoding="UTF-8" standalone="no"?>
<svg
   xmlns:dc="http://purl.org/dc/elements/1.1/"
   xmlns:cc="http://creativecommons.org/ns#"
   xmlns:rdf="http://www.w3.org/1999/02/22-rdf-syntax-ns#"
   xmlns:svg="http://www.w3.org/2000/svg"
   xmlns="http://www.w3.org/2000/svg"
   xmlns:sodipodi="http://sodipodi.sourceforge.net/DTD/sodipodi-0.dtd"
   xmlns:inkscape="http://www.inkscape.org/namespaces/inkscape"
   inkscape:version="1.0 (4035a4fb49, 2020-05-01)"
   height="58"
   width="47"
   sodipodi:docname="red.svg"
   xml:space="preserve"
   viewBox="0 0 360 511.99979"
   y="0px"
   x="0px"
   id="Capa_1"
   version="1.1"><metadata
   id="metadata41"><rdf:RDF><cc:Work
       rdf:about=""><dc:format>image/svg+xml</dc:format><dc:type
         rdf:resource="http://purl.org/dc/dcmitype/StillImage" /><dc:title></dc:title></cc:Work></rdf:RDF></metadata><defs
   id="defs39" /><sodipodi:namedview
   inkscape:current-layer="Capa_1"
   inkscape:window-maximized="1"
   inkscape:window-y="-8"
   inkscape:window-x="-8"
   inkscape:cy="81.170732"
   inkscape:cx="180"
   inkscape:zoom="1.6015625"
   showgrid="false"
   id="namedview37"
   inkscape:window-height="987"
   inkscape:window-width="1680"
   inkscape:pageshadow="2"
   inkscape:pageopacity="0"
   guidetolerance="10"
   gridtolerance="10"
   objecttolerance="10"
   borderopacity="1"
   bordercolor="#666666"
   pagecolor="#ffffff" />
<path
   id="path2"
   d="M 180,0 C 80.698,0 0,80.7 0,180 c 0,33.6 9.302,66.301 27.001,94.501 l 140.797,230.414 c 2.402,3.9 6.002,6.301 10.203,6.901 5.698,0.899 12.001,-1.5 15.3,-7.2 L 334.501,272.1 C 351.299,244.501 360,212.401 360,180 360,80.7 279.302,0 180,0 Z m 0,270 c -50.398,0 -90,-40.8 -90,-90 0,-49.501 40.499,-90 90,-90 49.501,0 90,40.499 90,90 0,48.9 -39.001,90 -90,90 z"
   style="fill:#fd003a" />
<path
   id="path4"
   d="m 180,0 v 90 c 49.501,0 90,40.499 90,90 0,48.9 -39.001,90 -90,90 v 241.991 c 5.119,0.119 10.383,-2.335 13.3,-7.375 L 334.5,272.1 C 351.299,244.501 360,212.401 360,180 360,80.7 279.302,0 180,0 Z"
   style="fill:#e50027" />
<g
   transform="translate(-76)"
   id="g6">
</g>
<g
   transform="translate(-76)"
   id="g8">
</g>
<g
   transform="translate(-76)"
   id="g10">
</g>
<g
   transform="translate(-76)"
   id="g12">
</g>
<g
   transform="translate(-76)"
   id="g14">
</g>
<g
   transform="translate(-76)"
   id="g16">
</g>
<g
   transform="translate(-76)"
   id="g18">
</g>
<g
   transform="translate(-76)"
   id="g20">
</g>
<g
   transform="translate(-76)"
   id="g22">
</g>
<g
   transform="translate(-76)"
   id="g24">
</g>
<g
   transform="translate(-76)"
   id="g26">
</g>
<g
   transform="translate(-76)"
   id="g28">
</g>
<g
   transform="translate(-76)"
   id="g30">
</g>
<g
   transform="translate(-76)"
   id="g32">
</g>
<g
   transform="translate(-76)"
   id="g34">
</g>
</svg>
