<?xml version="1.0" encoding="UTF-8" standalone="no"?>
<svg
   xmlns:dc="http://purl.org/dc/elements/1.1/"
   xmlns:cc="http://creativecommons.org/ns#"
   xmlns:rdf="http://www.w3.org/1999/02/22-rdf-syntax-ns#"
   xmlns:svg="http://www.w3.org/2000/svg"
   xmlns="http://www.w3.org/2000/svg"
   xmlns:sodipodi="http://sodipodi.sourceforge.net/DTD/sodipodi-0.dtd"
   xmlns:inkscape="http://www.inkscape.org/namespaces/inkscape"
   inkscape:version="1.0 (4035a4fb49, 2020-05-01)"
   height="58"
   width="47"
   sodipodi:docname="red_.svg"
   xml:space="preserve"
   viewBox="0 0 360 511.99979"
   y="0px"
   x="0px"
   id="Capa_1"
   version="1.1"><metadata
   id="metadata41"><rdf:RDF><cc:Work
       rdf:about=""><dc:format>image/svg+xml</dc:format><dc:type
         rdf:resource="http://purl.org/dc/dcmitype/StillImage" /><dc:title></dc:title></cc:Work></rdf:RDF></metadata><defs
   id="defs39" /><sodipodi:namedview
   inkscape:current-layer="Capa_1"
   inkscape:window-maximized="1"
   inkscape:window-y="-8"
   inkscape:window-x="-8"
   inkscape:cy="240.75303"
   inkscape:cx="136.28804"
   inkscape:zoom="1.6015625"
   showgrid="false"
   id="namedview37"
   inkscape:window-height="987"
   inkscape:window-width="1680"
   inkscape:pageshadow="2"
   inkscape:pageopacity="0"
   guidetolerance="10"
   gridtolerance="10"
   objecttolerance="10"
   borderopacity="1"
   bordercolor="#666666"
   pagecolor="#ffffff" />


<g
   transform="translate(-76)"
   id="g6">
</g>
<g
   transform="translate(-76)"
   id="g8">
</g>
<g
   transform="translate(-76)"
   id="g10">
</g>
<g
   transform="translate(-76)"
   id="g12">
</g>
<g
   transform="translate(-76)"
   id="g14">
</g>
<g
   transform="translate(-76)"
   id="g16">
</g>
<g
   transform="translate(-76)"
   id="g18">
</g>
<g
   transform="translate(-76)"
   id="g20">
</g>
<g
   transform="translate(-76)"
   id="g22">
</g>
<g
   transform="translate(-76)"
   id="g24">
</g>
<g
   transform="translate(-76)"
   id="g26">
</g>
<g
   transform="translate(-76)"
   id="g28">
</g>
<g
   transform="translate(-76)"
   id="g30">
</g>
<g
   transform="translate(-76)"
   id="g32">
</g>
<g
   transform="translate(-76)"
   id="g34">
</g>
<path
   id="path868"
   d="m 174.69268,510.1553 c -1.20195,-0.64082 -2.94122,-1.96304 -3.86505,-2.93827 C 169.9038,506.24181 136.76435,452.48 97.184393,387.74634 23.692737,267.54955 17.535746,257.02065 12.179905,242.38241 7.570711,229.78486 4.232546,216.29496 2.26185,202.30244 1.153588,194.43344 1.136047,165.27699 2.23499,157.65854 6.981713,124.75182 18.221193,97.354821 37.584095,71.492683 44.264786,62.569597 61.212694,45.320958 69.795122,38.710091 100.57815,14.998562 137.35122,1.5386318 174.22487,0.48599776 l 6.08829,-0.173803 -4.8e-4,44.70460024 -4.9e-4,44.704599 -6.71219,0.4091 c -20.93615,1.276036 -40.86426,10.524616 -56.6898,26.309586 -16.71101,16.66816 -25.359468,36.4796 -26.306843,60.26236 -1.923003,48.27494 33.583173,88.58774 82.060053,93.16889 l 7.64878,0.72282 v 120.39073 120.39073 l -1.71707,-0.0276 c -0.94439,-0.0152 -2.70049,-0.5519 -3.90244,-1.19271 z"
   style="fill:#ff2a2a;fill-opacity:1;fill-rule:evenodd;stroke-width:0.62439" /><path
   id="path874"
   d="M 180.31219,391.37613 V 270.99856 l 4.52683,-0.4195 c 24.05458,-2.22915 41.96291,-9.88858 57.34488,-24.52651 18.91077,-17.99605 28.21022,-39.74176 28.23722,-66.02951 0.016,-15.60105 -2.82789,-27.66239 -9.65152,-40.93306 -4.71998,-9.17948 -9.94764,-16.12067 -18.10521,-24.03976 -7.3903,-7.17424 -13.08422,-11.21525 -22.36496,-15.872537 -11.49503,-5.768479 -25.4171,-9.379034 -36.16493,-9.379034 h -3.82231 V 45.074417 0.35018476 l 7.0244,0.435655 C 232.30627,3.5748728 268.77422,18.69833 301.70575,48.215354 c 25.39752,22.764179 46.09118,58.544906 53.66089,92.783296 3.15443,14.26769 3.80464,20.92226 3.81304,39.02439 0.008,18.05309 -0.54858,23.65292 -3.81927,38.4 -5.11569,23.06593 -10.62033,35.77702 -27.98608,64.62439 -15.63205,25.9674 -59.56082,98.31294 -90.04676,148.29648 -48.69256,79.83439 -46.52803,76.45666 -50.23759,78.39504 -0.90832,0.47462 -2.80491,1.12212 -4.21464,1.43886 l -2.56315,0.5759 z"
   style="fill:#ff2a2a;fill-opacity:1;fill-rule:evenodd;stroke-width:0.62439" /><path
   d="m 173.58049,2.9485057 h 13.1122 V 507.62926 h -13.1122 z"
   style="fill:#ff2a2a;fill-opacity:1;fill-rule:evenodd;stroke-width:1.56031"
   id="rect878" /><path
   id="path876"
   d="M 164.86237,343.34439 C 141.95172,340.76165 125.42628,335.91796 103.91021,325.47902 85.396257,316.49664 71.915306,306.768 57.540378,292.01582 35.656926,269.55809 20.890973,242.14463 13.962863,211.11281 11.353972,199.42728 10.329837,169.20497 12.093226,155.93965 17.256415,117.0989 32.775548,86.537525 61.471234,58.700977 88.678521,32.30825 120.80676,16.315823 156.57761,11.359953 c 11.57294,-1.6033697 33.98348,-1.5918523 46.38572,0.02383 67.77646,8.829514 126.56274,60.764609 142.39682,125.801269 13.04047,53.5623 -1.16106,110.61646 -37.33296,149.9838 -30.47596,33.16822 -66.67533,51.23851 -112.64209,56.22959 -12.88164,1.3987 -17.71181,1.39014 -30.52273,-0.054 z"
   style="fill:#ffffff;fill-opacity:1;fill-rule:evenodd;stroke-width:1.17229" /><path
   style="opacity:1;fill:#ff2a2a;fill-opacity:1;fill-rule:evenodd;stroke-width:1.20921"
   d="M 164.23798,345.19102 C 140.35926,342.5545 123.13557,337.60994 100.71035,326.95361 81.414082,317.78418 67.363505,307.85296 52.381186,292.79357 29.573057,269.86816 14.183186,241.88383 6.9623345,210.2058 4.2432071,198.27692 3.1757979,167.42525 5.0136969,153.88369 10.395052,114.2341 26.569934,83.036308 56.47813,54.620081 84.835037,27.677741 118.32085,11.352283 155.60316,6.2932079 167.66511,4.6564497 191.02259,4.6682074 203.94888,6.3175367 274.58916,15.33092 335.85941,68.347536 352.36256,134.73854 c 13.59149,54.67771 -1.21015,112.91997 -38.91044,153.10712 -31.76368,33.85893 -69.49264,52.30552 -117.40169,57.40053 -13.42594,1.42783 -18.46022,1.41909 -31.81245,-0.0552 z"
   id="path876-1" /></svg>
